<svg viewBox="0 0 495 252" xmlns="http://www.w3.org/2000/svg"><g fill-rule="evenodd"><ellipse cx="341.8" cy="77.3" fill="#fff" rx="30.3" ry="30.5"/><g fill="#ff5858"><path d="m102 252h30.4v-31h10v31h30.4v-31h40v31h30.4v-31h10v31.2h33.8c-3-9.2-4.4-19-4.4-29 0-55.5 45.2-100.5 101-100.5 40.5 0 75.5 24 91.5 58.3h19.3c-17.6-59.2-56.5-109.3-108-141.4 1.7-7.8.2-16-4-22.6-7.6.3-15 3.5-20.5 9-33-15.8-70.2-24.7-109.5-24.7-139.4 0-252.4 112.3-252.4 251h82v-31h20v31zm240-149.6c14 0 25.2-11.2 25.2-25 0-14-11.3-25.2-25.2-25.2s-25.2 11.2-25.2 25c0 14 11.3 25.2 25.2 25.2zm9-7c5.7 0 10.2-4.5 10.2-10s-4.5-10-10-10c-5.7 0-10.2 4.5-10.2 10s4.5 10 10 10zm-20.5-43.4"/><path d="m330.4 52c9.6-4 17-13 18.2-24s-3.6-21.5-12-27.8c-9.5 4-16.8 13-18 24s3.4 21.6 11.8 28z"/></g></g></svg>