<svg xmlns="http://www.w3.org/2000/svg" viewBox="0 0 20 24"><path fill="#fff" fill-rule="evenodd" d="M4 18c0 .55.45 1 1 1h1v3.5c0 .83.67 1.5 1.5 1.5S9 23.33 9 22.5V19h2v3.5c0 .83.67 1.5 1.5 1.5s1.5-.67 1.5-1.5V19h1c.55 0 1-.45 1-1V8H4v10zM1.5 8C.67 8 0 8.67 0 9.5v7c0 .83.67 1.5 1.5 1.5S3 17.33 3 16.5v-7C3 8.67 2.33 8 1.5 8zm17 0c-.83 0-1.5.67-1.5 1.5v7c0 .83.67 1.5 1.5 1.5s1.5-.67 1.5-1.5v-7c0-.83-.67-1.5-1.5-1.5zm-4.97-5.84l1.3-1.3c.2-.2.2-.5 0-.7-.2-.2-.5-.2-.7 0l-1.5 1.47C11.86 1.23 10.96 1 10 1c-.96 0-1.86.23-2.66.63L5.84.15c-.2-.2-.5-.2-.7 0-.2.2-.2.5 0 .7l1.3 1.32C4.98 3.27 4 5 4 7h12c0-2-.97-3.75-2.47-4.84zM8 5H7V4h1v1zm5 0h-1V4h1v1z"/></svg>