<svg xmlns="http://www.w3.org/2000/svg" viewBox="0 0 21 25"><path fill="#fff" fill-rule="evenodd" d="M13.92 4.06c.8-1.05 1.4-2.54 1.2-4.06-1.32.1-2.85.95-3.75 2.06-.8 1-1.48 2.5-1.22 3.96 1.43.04 2.9-.83 3.77-1.96zm5.5 17.3C18.37 23 16.9 25 15.1 25c-1.6 0-2-1.07-4.18-1.06-2.17 0-2.62 1.08-4.22 1.06-1.8-.02-3.18-1.82-4.2-3.43C-.4 17.07-.7 11.8 1.1 9c1.27-1.98 3.26-3.15 5.14-3.15 1.9 0 3.1 1.08 4.68 1.08 1.53 0 2.47-1.08 4.67-1.08 1.66 0 3.43.93 4.7 2.54-4.14 2.3-3.47 8.33.7 9.94-.57 1.3-.85 1.88-1.6 3.03z"/></svg>