<svg xmlns="http://www.w3.org/2000/svg" xml:space="preserve" viewBox="0 0 256 256"><g stroke-miterlimit="10" stroke-width="0"><path d="M248.67 1.407h-52.412c-5.022 0-7.537 6.07-3.985 9.621l16.284 16.284-95.034 95.034-33.279-33.279-8.919-8.919a7.727 7.727 0 0 0-10.928 0L3.669 136.874a7.727 7.727 0 0 0 0 10.928l8.919 8.919a7.727 7.727 0 0 0 10.928 0l42.344-42.344 42.133 42.133a7.727 7.727 0 0 0 10.928 0l4.535-4.535c.233-.186.478-.351.694-.568l104.251-104.25 16.284 16.283c3.552 3.552 9.622 1.037 9.622-3.984V7.043a5.636 5.636 0 0 0-5.637-5.636z"/><path d="M185.816 107.625v138.954a7.727 7.727 0 0 0 7.727 7.728h24.678a7.727 7.727 0 0 0 7.727-7.728V67.492l-40.132 40.133zM133.8 159.643v86.936a7.727 7.727 0 0 0 7.727 7.728h24.678a7.727 7.727 0 0 0 7.727-7.728V119.511L133.8 159.643zm-20.342 11.777a20.237 20.237 0 0 1-14.407-5.968l-17.27-17.268v98.395a7.727 7.727 0 0 0 7.728 7.728h24.677a7.727 7.727 0 0 0 7.727-7.728v-77.01a20.266 20.266 0 0 1-8.455 1.851zM65.86 132.26l-33.4 33.4a20.413 20.413 0 0 1-2.695 2.248v78.671a7.727 7.727 0 0 0 7.728 7.728H62.17a7.727 7.727 0 0 0 7.728-7.728V136.298l-4.038-4.038z"/></g></svg>
