<svg viewBox="0 0 32 32" xmlns="http://www.w3.org/2000/svg" xmlns:xlink="http://www.w3.org/1999/xlink"><defs><path id="a" d="m1.87.23c3.2-.36 6.55.26 9.55 2 7.45 4.27 10 13.76 5.7 21.18-3.05 5.27-8.73 8.08-14.44 7.74l7.04-12.15c1.83-3.3.68-7.46-2.6-9.35-1.04-.6-2.17-.9-3.28-.92h13.72c-2.56-5.1-7.84-8.6-13.94-8.6-.6 0-1.17.04-1.75.1zm1.23 8.5c-1.1.1-2.15.44-3.1 1 .92-.55 1.97-.9 3.1-1z"/><filter id="b" height="200%" width="200%" x="-50%" y="-50%"><feGaussianBlur in="SourceGraphic" stdDeviation="1.99"/></filter><path id="c" d="m8.4 29.28c-5-2.6-8.4-7.78-8.4-13.78 0-8.54 6.98-15.5 15.58-15.5 6.1 0 11.4 3.5 13.95 8.6h-14.1c-3.76.06-6.8 3.13-6.8 6.9 0 2.64 1.46 4.92 3.62 6.1l-3.85 7.67z"/><filter id="d" height="200%" width="200%" x="-50%" y="-50%"><feGaussianBlur in="SourceGraphic" stdDeviation="3.01"/></filter><path id="e" d="m21.5 22.95c-7.1 2.9-15.46.2-19.4-6.6-3.07-5.27-2.67-11.57.5-16.32l7.03 12.14c1.95 3.22 6.15 4.3 9.43 2.42 2.3-1.32 3.54-3.73 3.48-6.18.04 1.2-.24 2.4-.85 3.5l-7.05 12.15c2.34.15 4.7-.25 6.85-1.12z"/><filter id="f" height="200%" width="200%" x="-50%" y="-50%"><feGaussianBlur in="SourceGraphic" stdDeviation="1.99"/></filter><mask id="g" fill="#fff"><use fill="#fff" fill-rule="evenodd" xlink:href="#a"/></mask><mask id="h" fill="#fff"><use fill="#fff" fill-rule="evenodd" xlink:href="#c"/></mask><mask id="i" fill="#fff"><use fill="#fff" fill-rule="evenodd" xlink:href="#e"/></mask></defs><g fill="none" fill-rule="evenodd"><ellipse cx="15.58" cy="15.65" fill="#fff" fill-opacity=".83" rx="8.21" ry="8.17"/><g transform="translate(11.965)"><use fill="#ffce44" xlink:href="#a"/><path d="m10.45-1-4.75 16.32 10.13-16.32" fill="#a48a41" filter="url(#b)" mask="url(#g)" transform="matrix(-.40673664 -.91354546 .91354546 -.40673664 8.604362 19.903738)"/></g><g transform="translate(0 .14)"><use fill="#de5347" xlink:href="#c"/><path d="m4.74 4.72-4.76 16.35 10.16-16.35" fill="#92463f" filter="url(#d)" mask="url(#h)" transform="matrix(-.5 .8660254 -.8660254 -.5 18.75463 14.96601)"/></g><ellipse cx="15.58" cy="15.65" fill="#4b8bf5" rx="5.84" ry="5.82"/><g transform="translate(0 7.064)"><use fill="#1fa261" xlink:href="#e"/><path d="m17.84 12.88-4.76 16.35 10.15-16.35" fill="#3b8460" filter="url(#f)" mask="url(#i)"/></g></g></svg>