<svg viewBox="0 0 512 512" xmlns="http://www.w3.org/2000/svg">
  <g transform="translate(8 126)" fill-rule="evenodd">
    <ellipse cx="341.766" cy="77.303" fill="#fff" rx="30.315" ry="30.522"></ellipse>

    <g fill="#ff5858">
      <path d="m102 251.9h30.4v-31h10v31.1h30.4v-31h40v31.1h30.4v-31h10v31.1h33.7c-2.8-9.2-4.3-19-4.3-29.1 0-55.4 45.2-100.4 100.9-100.4 40.6 0 75.6 23.9 91.6 58.3h19.1c-17.6-59.2-56.5-109.3-108-141.4 1.7-7.8.2-15.9-3.9-22.6-7.7.3-15.1 3.5-20.6 9.1-33.1-15.9-70.2-24.8-109.5-24.8-139.3 0-252.3 112.3-252.3 250.9h82v-31h20v31.1zm240-149.5c13.9 0 25.2-11.2 25.2-25.1s-11.3-25.1-25.2-25.1-25.2 11.2-25.2 25.1 11.3 25.1 25.2 25.1zm9.1-7c5.6 0 10.1-4.5 10.1-10s-4.5-10-10.1-10-10.1 4.5-10.1 10 4.5 10 10.1 10zm-20.7-43.3"></path>

      <path d="m330.4 52.1c9.6-4.1 16.9-13 18.2-24.1s-3.5-21.5-11.9-27.8c-9.6 4.1-16.9 13-18.2 24.1s3.5 21.5 11.9 27.8z"></path>
    </g>
  </g>
</svg>