<svg height="512" viewBox="0 0 512 512" width="512" xmlns="http://www.w3.org/2000/svg"><path d="m248.3 1029.2c-10.7-4.6-17.5-13-21.3-26.1-.9-3-3.9-78.8-6.8-168.6-7.5-234.6-7.8-248-5.4-256.8 2.5-9 11.2-19.4 18.9-22.6 10-4.2 29.4-2.6 110.9 9.1 87.8 12.6 91 13.5 102.2 27.1 7.6 9.1 9.9 20.1 12.1 57.1 1.1 18.3 5.9 92.6 10.6 165 4.8 72.4 8.7 136.5 8.7 142.4 0 18.6-8.3 35.4-20.9 42.5-5.1 2.9-27.7 7.4-92.9 18.7-88.9 15.4-104.8 17.1-116.1 12.1zm108.9-105.2c33.3-3.4 63.4-7 66.9-7.9 10.1-2.6 17.9-8.9 22.4-17.9 4.1-8.3 4.1-8.3-.4-82.5-2.5-40.8-5.4-89.2-6.4-107.6-2.1-39.2-4.3-45.8-17.6-53.9-7.7-4.7-9-4.9-78-10.1-76.9-5.8-79.2-5.7-88.5 3.6-7.3 7.3-9.3 16.4-8.1 36.5.6 9.3 2.6 61.9 4.6 117 1.9 55 4.3 103 5.3 106.6 2.2 8.1 9.4 16.9 16.5 20 8 3.5 17.3 3.1 83.5-3.8zm-77.3 1.1c-2.5-.8-6.1-2.3-8.2-3.4-4.4-2.4-11-15.4-11-21.6 0-4.3.4-4.5 14.9-5.7 23.1-1.9 33.2-6.5 38.4-17.4 2.6-5.5 2.5-12.5-.7-88.2-1.9-45.3-4.3-85.9-5.3-90.2-2-8.5-6.7-14.7-14.3-18.6-3.8-2-29.4-5.8-39.8-5.9-3.3 0-1.7-14.2 2.3-20.3 5.9-9 12.6-10.2 43.9-7.8 15.5 1.2 28.2 2.3 28.3 2.4s2.7 57.1 5.7 126.6 5.9 130.8 6.4 136.2c.9 9.8.9 9.8-21.5 11.9-12.3 1.2-25.2 2.5-28.6 2.9s-8.2.1-10.6-.7zm-134.2 57.1c-10.7-3.3-16.1-7.6-20-15.8-4.6-9.4-4.8-14.6-8.1-197.1-3-161-3.4-152.9 9-163.8 8.3-7.3 17-8.1 51.4-4.5 29.6 3.1 29.6 3.1 30.7 25.2.6 12.2 1.1 27.1 1.1 33.1 0 11 0 11-15.4 9.7-35.9-3.1-43.4-1.3-49.9 12-2.7 5.6-2.8 13.2-1.2 98.2 1 50.7 2.6 96.3 3.5 101.4 2.1 11 8 18.7 16.7 21.6 6 2 22.4 1.5 44.7-1.2 8.2-1 8.2-1 9.2 8.4.5 5.2 1.3 22.5 1.7 38.5.7 29.1.7 29.1-30.2 32.9-35 4.4-33.7 4.3-43.2 1.4zm-90.3-60.1c-11.8-6.1-11.9-6.8-14-107.7-1.1-49.8-2-103.4-2-119.2 0-28.7 0-28.7 5.8-34.5 7.7-7.7 13.3-8.5 41.6-5.7 23.7 2.3 23.7 2.3 24.2 25.7s.5 23.4-18.6 22.2c-21.7-1.4-28.1.5-31.8 9.3-3 7.3.2 138.4 3.6 145.5 4.2 8.9 12.1 11.3 32.7 10 18-1.1 18-1.1 18 26.1 0 30.9 3 28.3-36 30.4-14.6.8-18.6.4-23.5-2.1zm103.6-28c-5.7-4.8-8.9-13.4-9-23.8 0-6.3 0-6.3 11.6-7.5 14.2-1.5 20.8-4.6 24.5-11.8 2.5-4.8 2.7-13.2 2.2-67.1-.5-46.7-1.2-62.7-2.9-65.7-3.5-6.1-12.6-10.9-20.7-10.9-4 0-9.7-.5-12.7-1.1-5.3-1.1-5.5-1.4-5.5-10.6 0-20.1 6.6-24.4 34.2-22.6 18.4 1.3 18.4 1.3 20.2 7.7 1.7 6.4 5.3 133.1 5.3 187.4 0 28.3 0 28.3-11.9 29.4-23 2.2-29.5 1.6-35.4-3.4z" fill="#ccc" transform="matrix(1.0354396 0 0 1.0354396 -9.171763 -564.44099)"/></svg>